<?xml version="1.0" encoding="iso-8859-1"?>
<!-- Generator: Adobe Illustrator 19.0.0, SVG Export Plug-In . SVG Version: 6.00 Build 0)  -->
<svg version="1.1" id="Layer_1" xmlns="http://www.w3.org/2000/svg" xmlns:xlink="http://www.w3.org/1999/xlink" x="0px" y="0px"
	 viewBox="0 0 299.97 299.97" style="enable-background:new 0 0 299.97 299.97;" xml:space="preserve">
<g>
	<g>
		<g>
			<path d="M149.985,126.898c34.986,0,63.449-28.463,63.449-63.449C213.435,28.463,184.971,0,149.985,0S86.536,28.463,86.536,63.449
				C86.536,98.436,114.999,126.898,149.985,126.898z M149.985,15.15c26.633,0,48.299,21.667,48.299,48.299
				s-21.667,48.299-48.299,48.299s-48.299-21.667-48.299-48.299S123.353,15.15,149.985,15.15z"/>
			<path d="M255.957,271.919l-20.807-86.313c-2.469-10.244-11.553-17.399-22.093-17.399c-13.216,0-114.332,0-126.145,0
				c-10.538,0-19.623,7.155-22.093,17.399l-20.807,86.313c-3.444,14.289,7.377,28.051,22.093,28.051h167.76
				C248.563,299.97,259.407,286.229,255.957,271.919z M66.105,284.82c-4.898,0-8.513-4.581-7.364-9.35l20.807-86.314
				c0.823-3.415,3.851-5.799,7.365-5.799H121.4l-9.553,67.577c-0.283,2,0.244,4.029,1.464,5.637l21.422,28.249H66.105z
				 M127.291,249.932l9.411-66.574h26.567l9.411,66.574l-22.695,29.927L127.291,249.932z M233.865,284.82h-68.628l21.421-28.248
				c1.22-1.609,1.747-3.638,1.464-5.637l-9.553-67.577h34.487c3.513,0,6.542,2.385,7.365,5.8l20.807,86.313
				C242.377,280.235,238.769,284.82,233.865,284.82z"/>
		</g>
	</g>
</g>
<g>
</g>
<g>
</g>
<g>
</g>
<g>
</g>
<g>
</g>
<g>
</g>
<g>
</g>
<g>
</g>
<g>
</g>
<g>
</g>
<g>
</g>
<g>
</g>
<g>
</g>
<g>
</g>
<g>
</g>
</svg>
